# AST/ASF file generated using VICON BodyLanguage
# -----------------------------------------------
:version 1.10
:name VICON
:units
  mass 1.0
  length 0.45
  angle deg
:documentation
   .ast/.asf automatically generated from VICON data using
   VICON BodyBuilder and BodyLanguage model FoxedUp or BRILLIANT.MOD
:root
   order TX TY TZ RX RY RZ
   axis XYZ
   position 0 0 0  
   orientation 0 0 0 
:bonedata
  begin
     id 1 
     name lhipjoint
     direction 0.578396 -0.714046 0.394458 
     length 2.21935 
     axis 0 0 0  XYZ
  end
  begin
     id 2 
     name lfemur
     direction 0.34202 -0.939693 0  
     length 6.39105  
     axis 0 0 20  XYZ
    dof rx ry rz
    limits (-160.0 20.0)
           (-70.0 70.0)
           (-60.0 70.0)
  end
  begin
     id 3 
     name ltibia
     direction 0.34202 -0.939693 0   
     length 6.99037   
     axis 0 0 20   XYZ
    dof rx
    limits (-10.0 170.0)
  end
  begin
     id 4 
     name lfoot
     direction 0.0582372 -0.160005 0.985397   
     length 2.06111   
     axis -90 7.62852e-016 20   XYZ
    dof rx rz
    limits (-45.0 90.0)
           (-70.0 20.0)
  end
  begin
     id 5 
     name ltoes
     direction 1.53556e-011 -4.21875e-011 1   
     length 1.04074   
     axis -90 7.62852e-016 20   XYZ
    dof rx
    limits (-90.0 20.0)
  end
  begin
     id 6 
     name rhipjoint
     direction -0.558179 -0.726269 0.40121   
     length 2.182  
     axis 0 0 0  XYZ 
  end
  begin
     id 7 
     name rfemur
     direction -0.34202 -0.939693 0   
     length 6.51172   
     axis 0 0 -20   XYZ
    dof rx ry rz
    limits (-160.0 20.0)
           (-70.0 70.0)
           (-70.0 60.0)
  end
  begin
     id 8 
     name rtibia
     direction -0.34202 -0.939693 0   
     length 7.02607   
     axis 0 0 -20   XYZ
    dof rx
    limits (-10.0 170.0)
 end
 begin
     id 9 
     name rfoot
     direction -0.0788856 -0.216737 0.973038   
     length 1.96734  
     axis -90 -7.62852e-016 -20   XYZ
    dof rx rz
    limits (-45.0 90.0)
           (-20.0 70.0)
  end
  begin
     id 10 
     name rtoes
     direction -1.53567e-011 -4.21783e-011 1   
     length 0.990825   
     axis -90 -7.62852e-016 -20   XYZ
    dof rx
    limits (-90.0 20.0)
  end
  begin
     id 11 
     name lowerback
     direction 0.00668177 0.999323 -0.0361741   
     length 1.7655   
     axis 0 0 0   XYZ
    dof rx ry rz
    limits (-20.0 45.0)
           (-30.0 30.0)
           (-30.0 30.0)
  end
  begin
     id 12 
     name upperback
     direction -0.00222086 0.99851 0.0545167   
     length 1.74912   
     axis 0 0 0   XYZ
    dof rx ry rz
    limits (-20.0 45.0)
           (-30.0 30.0)
           (-30.0 30.0)
  end
  begin
     id 13 
     name thorax
     direction -0.00733971 0.997496 0.0703443   
     length 1.75715   
     axis 0 0 0   XYZ
    dof rx ry rz
    limits (-20.0 45.0)
           (-30.0 30.0)
           (-30.0 30.0)
  end
  begin
     id 14 
     name lowerneck
     direction 0.0279797 0.994795 0.0979765   
     length 1.46939   
     axis 0 0 0   XYZ
    dof rx ry rz
    limits (-20.0 45.0)
           (-30.0 30.0)
           (-30.0 30.0)
  end
  begin
     id 15 
     name upperneck
     direction 0.00339187 0.976776 -0.214238   
     length 1.48018   
     axis 0 0 0   XYZ
    dof rx ry rz
    limits (-20.0 45.0)
           (-30.0 30.0)
           (-30.0 30.0)
  end
  begin
     id 16
     name head
     direction -0.00263506 0.996603 -0.0823096  
     length 1.4976  
     axis 0 0 0   XYZ
    dof rx ry rz
    limits (-20.0 45.0)
           (-30.0 30.0)
           (-30.0 30.0)
  end
  begin
     id 17 
     name lclavicle
     direction 0.894044 0.44508 -0.0508781  
     length 3.03024  
     axis 0 0 0   XYZ
    dof ry rz
    limits (-20.0 10.0)
           (0.0 20.0)
  end
  begin
     id 18 
     name lhumerus
     direction 1 -4.48961e-011 -2.39475e-018   
     length 4.4661   
     axis 180 -30 -90   XYZ
    dof rx ry rz
    limits (-60.0 90.0)
           (-90.0 90.0)
           (-90.0 90.0)
  end
  begin
     id 19
     name lradius
     direction 1 -4.48961e-011 9.29328e-028   
     length 3.41414   
     axis 180 -30 -90   XYZ
    dof rx
    limits (-10.0 170.0)
  end
  begin
     id 20
     name lwrist
     direction 1 -4.48985e-011 1.53461e-026   
     length 1.70707   
     axis -1.09697e-014 90 90   XYZ
    dof ry
    limits (-180.0 0.0)
 end
  begin
     id 21 
     name lhand
     direction 1 -4.48966e-011 3.06923e-026   
     length 0.328298   
     axis -1.95843e-014 90 90   XYZ
    dof rx rz
    limits (-90.0 90.0)
           (-45.0 45.0)
  end
  begin
     id 22 
     name lfingers
     direction 1 -4.48893e-011 6.13845e-026   
     length 0.264682   
     axis -3.91686e-014 90 90   XYZ
    dof rx
    limits (0.0 90.0)
  end
  begin
     id 23
     name lthumb
     direction 0.707107 -6.34876e-011 0.707107   
     length 0.380032   
     axis -90 45 2.85299e-015   XYZ
    dof rx rz
    limits (-45.0 45.0)
           (-45.0 45.0)
  end
  begin
     id 24 
     name rclavicle
     direction -0.936955 0.347862 -0.0332887   
     length 3.26927  
     axis 0 0 0   XYZ 
    dof ry rz
    limits (-10.0 20.0)
           (-20.0 0.0)
  end
  begin
     id 25 
     name rhumerus
     direction -1 -4.4896e-011 1.78637e-018  
     length 4.40431   
     axis 180 30 90   XYZ
    dof rx ry rz
    limits (-90.0 60.0)
           (-90.0 90.0)
           (-90.0 90.0)
  end
  begin
     id 26 
     name rradius
     direction -1 -4.48955e-011 9.34036e-027   
     length 3.04688   
     axis 180 30 90   XYZ
    dof rx
    limits (-10.0 170.0)
  end
  begin
     id 27 
     name rwrist
     direction -1 -4.49011e-011 1.53461e-026   
     length 1.52344   
     axis -1.09697e-014 -90 -90   XYZ
    dof ry
    limits (-180.0 0.0)
  end
  begin
     id 28
     name rhand
     direction -1 -4.48834e-011 3.06923e-026   
     length 0.500489   
     axis -1.95843e-014 -90 -90   XYZ
    dof rx rz
    limits (-90.0 90.0)
           (-45.0 45.0)
  end
  begin
     id 29
     name rfingers
     direction -1 -4.48967e-011 6.13845e-026   
     length 0.403507   
     axis -3.91686e-014 -90 -90   XYZ
    dof rx
    limits (0.0 90.0)
  end
  begin
     id 30
     name rthumb
     direction -0.707107 -6.34826e-011 0.707107   
     length 0.579358   
     axis -90 -45 -2.85299e-015   XYZ
    dof rx rz
    limits (-45.0 45.0)
           (-45.0 45.0)
  end
:hierarchy
  begin
    root lhipjoint rhipjoint lowerback
    lhipjoint lfemur
    lfemur ltibia
    ltibia lfoot
    lfoot ltoes
    rhipjoint rfemur
    rfemur rtibia
    rtibia rfoot
    rfoot rtoes
    lowerback upperback
    upperback thorax
    thorax lowerneck lclavicle rclavicle
    lowerneck upperneck
    upperneck head
    lclavicle lhumerus
    lhumerus lradius
    lradius lwrist
    lwrist lhand lthumb
    lhand lfingers
    rclavicle rhumerus
    rhumerus rradius
    rradius rwrist
    rwrist rhand rthumb
    rhand rfingers
  end

#!OML:ASF H:\IndianDance\Patient Classification 1\Patient 1\Session 1\dancer.ASF
:FULLY-SPECIFIED
:DEGREES
350
root 2.43425 14.836 13.788 -171.92 12.0892 -177.845
lowerback 6.07926 -3.53594 -2.92084
upperback -6.19842 -4.82909 0.570317
thorax -9.70338 -2.02827 2.90686
lowerneck -11.566 -11.5478 -5.17544
upperneck 8.99777 -15.3572 5.55779
head 5.41002 -7.30863 1.21864
rclavicle -2.55935e-014 -1.78906e-014
rhumerus -17.3903 41.0918 -2.17439
rradius 37.7801
rwrist -26.3365
rhand -1.55702 1.0979
rfingers 7.12502
rthumb 24.0982 -27.4088
lclavicle -2.55935e-014 -1.78906e-014
lhumerus 13.1936 -52.776 -8.00725
lradius 123.065
lwrist 28.4215
lhand -2.27771 -3.40044
lfingers 7.12502
lthumb 23.407 25.196
rfemur -48.6232 -19.5319 33.3628
rtibia 52.0344
rfoot -19.5244 1.39869
rtoes -24.2312
lfemur -12.0829 22.4331 -24.9636
ltibia 37.8944
lfoot -32.084 15.6692
ltoes 14.0353
351
root 2.43479 14.8287 13.8861 -172.113 12.3078 -177.908
lowerback 6.24449 -3.50859 -2.84433
upperback -6.12885 -4.81258 0.365758
thorax -9.75019 -2.03573 2.65491
lowerneck -11.7056 -11.2656 -5.11541
upperneck 9.27364 -14.9498 5.18074
head 5.46349 -7.12952 1.12401
rclavicle 4.64411e-014 8.74653e-015
rhumerus -18.0071 41.7715 -2.31911
rradius 39.0733
rwrist -26.5973
rhand -0.527993 1.2262
rfingers 7.12502
rthumb 25.0846 -27.1462
lclavicle 4.64411e-014 8.74653e-015
lhumerus 12.7938 -52.8508 -8.00507
lradius 123.101
lwrist 28.3689
lhand -2.15037 -3.34844
lfingers 7.12502
lthumb 23.5292 25.2324
rfemur -48.6529 -19.4777 32.8527
rtibia 53.7259
rfoot -19.8308 0.806983
rtoes -23.9733
lfemur -12.5996 22.7434 -25.0219
ltibia 38.4974
lfoot -32.2035 15.3718
ltoes 14.3754
352
root 2.43509 14.8205 13.9816 -172.339 12.5185 -178
lowerback 6.41802 -3.48718 -2.77833
upperback -6.06427 -4.80486 0.158318
thorax -9.80641 -2.04611 2.40758
lowerneck -11.8246 -10.9721 -5.04011
upperneck 9.55408 -14.5239 4.76738
head 5.51219 -6.94462 1.01891
rclavicle 3.28243e-014 9.54166e-015
rhumerus -18.5465 42.4489 -2.40973
rradius 40.4528
rwrist -26.9314
rhand 0.62328 1.32267
rfingers 7.12502
rthumb 26.1872 -26.8909
lclavicle 3.28243e-014 9.54166e-015
lhumerus 12.3804 -52.9509 -7.98461
lradius 123.131
lwrist 28.2971
lhand -2.02781 -3.29733
lfingers 7.12502
lthumb 23.6467 25.2684
rfemur -48.5881 -19.3549 32.1874
rtibia 55.5682
rfoot -20.1251 0.11621
rtoes -23.3856
lfemur -13.0415 23.0025 -25.1022
ltibia 39.05
lfoot -32.3292 15.1198
ltoes 14.6601
353
root 2.4353 14.8115 14.0746 -172.588 12.7161 -178.109
lowerback 6.5937 -3.47381 -2.71861
upperback -6.00658 -4.80765 -0.0473004
thorax -9.87044 -2.06031 2.16739
lowerneck -11.9293 -10.6662 -4.94326
upperneck 9.8433 -14.0788 4.3176
head 5.55847 -6.75302 0.901735
rclavicle 7.67806e-014 2.06736e-014
rhumerus -19.0147 43.1117 -2.45368
rradius 41.9297
rwrist -27.3863
rhand 1.82815 1.38029
rfingers 7.12502
rthumb 27.3402 -26.6569
lclavicle 7.67806e-014 2.06736e-014
lhumerus 11.963 -53.0693 -7.95052
lradius 123.153
lwrist 28.2188
lhand -1.84606 -3.21502
lfingers 7.12502
lthumb 23.821 25.3281
rfemur -48.436 -19.1701 31.394
rtibia 57.5129
rfoot -20.3969 -0.642294
rtoes -22.7346
lfemur -13.4318 23.2065 -25.1988
ltibia 39.5654
lfoot -32.4342 14.9497
ltoes 14.7939
354
root 2.43584 14.8024 14.1651 -172.847 12.8987 -178.225
lowerback 6.76565 -3.46653 -2.66407
upperback -5.95696 -4.81755 -0.246494
thorax -9.94009 -2.07665 1.93775
lowerneck -12.0225 -10.3505 -4.82552
upperneck 10.1438 -13.6185 3.83983
head 5.60499 -6.55582 0.774273
rclavicle -1.0138e-014 -1.59028e-014
rhumerus -19.4276 43.7425 -2.46074
rradius 43.5142
rwrist -27.9755
rhand 3.02867 1.40297
rfingers 7.12502
rthumb 28.4879 -26.4477
lclavicle -1.0138e-014 -1.59028e-014
lhumerus 11.5538 -53.2046 -7.90991
lradius 123.17
lwrist 28.1392
lhand -1.62421 -3.12569
lfingers 7.12502
lthumb 24.0338 25.3895
rfemur -48.1961 -18.9082 30.4812
rtibia 59.5111
rfoot -20.6473 -1.31279
rtoes -21.7651
lfemur -13.7869 23.3578 -25.2974
ltibia 40.0544
lfoot -32.518 14.8375
ltoes 14.8345
